<?xml version="1.0" encoding="utf-8" ?><svg xmlns="http://www.w3.org/2000/svg" xmlns:xlink="http://www.w3.org/1999/xlink" width="2048" height="2048" viewBox="0 0 2048 2048"><path fill="#13092F" d="M0 0L2048 0L2048 2048L0 2048L0 0Z"/><path fill="#7152E0" d="M707.399 880.383C653.677 877.828 606.053 861.432 565.561 825.465C468.609 739.346 503.819 608.793 582.083 523.897C695.13 400.704 912.933 393.862 1034.99 507.513C1127.6 593.739 1162.38 726.636 1069.39 826.941L1083.32 826.96L1083.47 909.859L1164.23 909.897L1164.34 826.192L1244.5 826.093C1244.68 799.015 1244.72 771.937 1244.62 744.858L1325.38 744.844L1325.16 664.192L1404.71 664.196L1404.74 583.106L1484.98 583.392L1485.02 497.801C1511.64 497.654 1538.27 497.671 1564.89 497.854L1565.09 583.277L1646.21 583.123L1646.22 664.525C1621.89 665.776 1589.96 664.89 1565.05 664.901C1565.07 689.77 1565.97 720.6 1565.01 744.958C1590.44 743.998 1620.37 744.875 1646.2 744.74L1646.18 826.321C1619.35 826.298 1591.7 826.589 1564.9 826.118C1566 850.086 1565.28 885.337 1564.98 910.02L1646.24 909.914L1646.11 990.958L1565.02 990.994L1565 1070.95C1575.5 1071.4 1641.85 1070.06 1646.12 1071.7L1646.07 1152.74C1619.07 1152.79 1592.07 1152.7 1565.08 1152.48C1565.05 1178.77 1565.59 1207.1 1564.97 1233.2C1539.56 1233.99 1510.88 1233.18 1485.13 1233.19C1485.88 1258.83 1485.12 1288.06 1485.19 1313.97L1404.67 1313.96L1404.72 1382.43L1394.7 1395.05L1325.71 1395.03L1325.72 1475.11L1350.9 1475.07C1343.75 1492.31 1338.11 1510.14 1334.05 1528.36C1332.06 1537.1 1330.3 1545.88 1328.63 1554.69C1328.31 1556.41 1326.25 1554.72 1326.11 1557.92C1324.99 1583.65 1325.65 1610.3 1325.77 1636.03L1244.73 1636.03L1244.65 1555.88L1164.81 1555.85L1164.82 1635.98L1083.31 1636.12C1083.38 1609.56 1083.74 1582.44 1083.48 1555.93C1060.42 1555.91 1036.19 1556.28 1013.23 1555.85C1008.85 1556.12 1004.93 1556 1000.74 1556.22C1000.75 1565.89 1001.2 1584.1 1000.13 1593.03C1000.22 1600.17 1000.42 1626.87 999.665 1635.64C999.637 1635.97 998.439 1635.96 998.029 1635.96L996.931 1635.95C802.73 1638.4 616.052 1574.06 529.999 1386.83C486.481 1291.8 482.322 1183.42 518.428 1085.33C554.487 988.426 613.426 923.235 707.399 880.383Z"/><path fill="#EFEFEF" d="M707.399 880.383C653.677 877.828 606.053 861.432 565.561 825.465C468.609 739.346 503.819 608.793 582.083 523.897C695.13 400.704 912.933 393.862 1034.99 507.513C1127.6 593.739 1162.38 726.636 1069.39 826.941C1054.03 842.79 1036.82 854.849 1017.65 865.674C1012.16 868.77 1003.62 872.418 999.048 875.139C980.764 882.803 961.605 888.186 942.005 891.166C933.433 892.435 927.422 892.948 918.827 893.608C918.829 898.972 918.899 904.016 918.587 909.385L918.201 909.878C919.467 932.631 918.41 967.506 918.311 991.364C910.885 990.298 899.672 990.947 891.873 990.842C873.47 990.597 854.534 991.27 836.165 990.821C836.276 1015.03 835.172 1048.29 836.268 1071.6C836.948 1096.24 836.459 1127.16 836.153 1152.13C835.813 1178.88 836.616 1206.53 835.928 1233.13C835.905 1250.02 835.098 1276.38 836.22 1292.5C836.22 1299.22 836.437 1306.81 835.887 1313.42L835.45 1313.84C838.306 1324.12 835.668 1380.17 836.24 1394.93C847.521 1395.55 863.995 1395.16 875.58 1395.12C888.781 1395.07 906.047 1395.66 918.852 1394.95C917.754 1413.84 918.078 1455.97 918.719 1475.23C919.093 1481.72 919.063 1489.34 918.896 1495.91C918.396 1515.59 919.782 1536.19 918.815 1555.77C941.647 1555.31 967.65 1555.56 990.661 1555.83C994.451 1555.42 996.192 1555.41 1000.02 1555.45C1004.96 1555.48 1008.25 1555.28 1013.23 1555.85C1008.85 1556.12 1004.93 1556 1000.74 1556.22C1000.75 1565.89 1001.2 1584.1 1000.13 1593.03C1000.22 1600.17 1000.42 1626.87 999.665 1635.64C999.637 1635.97 998.439 1635.96 998.029 1635.96L996.931 1635.95C802.73 1638.4 616.052 1574.06 529.999 1386.83C486.481 1291.8 482.322 1183.42 518.428 1085.33C554.487 988.426 613.426 923.235 707.399 880.383Z"/><path fill="#7152E0" d="M767.762 1394.85C788.594 1394.63 815.724 1394.15 836.24 1394.93C847.521 1395.55 863.995 1395.16 875.58 1395.12C888.781 1395.07 906.047 1395.66 918.852 1394.95C917.754 1413.84 918.078 1455.97 918.719 1475.23C919.093 1481.72 919.063 1489.34 918.896 1495.91C918.396 1515.59 919.782 1536.19 918.815 1555.77C910.363 1556.15 874.805 1555.15 869.652 1556.85C857.182 1546.39 845.776 1534.73 835.599 1522.04C825.401 1509.92 811.217 1490.09 803.11 1476.22C788.247 1454.18 775.796 1420.09 767.762 1394.85Z"/><path fill="#13092F" d="M918.852 1394.95C917.754 1413.84 918.078 1455.97 918.719 1475.23C896.32 1473.95 859.867 1475.04 836.489 1475.13C836.253 1449.55 837.298 1419.94 836.24 1394.93C847.521 1395.55 863.995 1395.16 875.58 1395.12C888.781 1395.07 906.047 1395.66 918.852 1394.95Z"/><path fill="#13092F" d="M803.11 1476.22C807.481 1474.88 830.01 1475.35 836.15 1475.31C836.104 1485.34 836.703 1513.53 835.599 1522.04C825.401 1509.92 811.217 1490.09 803.11 1476.22Z"/><path fill="#13092F" d="M836.333 910.148C862.635 910.158 892.155 910.598 918.201 909.878C919.467 932.631 918.41 967.506 918.311 991.364C910.885 990.298 899.672 990.947 891.873 990.842C873.47 990.597 854.534 991.27 836.165 990.821L836.333 910.148Z"/><path fill="#13092F" d="M755.11 990.685C781.75 990.733 809.629 990.318 836.165 990.821C836.276 1015.03 835.172 1048.29 836.268 1071.6C810 1071.03 781.503 1071.78 755.001 1071.75C754.995 1044.91 754.725 1017.48 755.11 990.685Z"/><path fill="#13092F" d="M836.153 1152.13C835.813 1178.88 836.616 1206.53 835.928 1233.13C808.95 1233.05 781.972 1233.15 754.996 1233.44L754.978 1152.52C781.495 1152.47 809.739 1152.72 836.153 1152.13Z"/><path fill="#13092F" d="M835.45 1313.84C838.306 1324.12 835.668 1380.17 836.24 1394.93C815.724 1394.15 788.594 1394.63 767.762 1394.85C766.91 1391.91 766.101 1388.95 765.337 1385.99L764.241 1381.49C763.898 1380.03 763.524 1378.45 763.207 1376.99L762.218 1372.49L761.254 1367.99C760.366 1363.67 759.533 1359.35 758.777 1355.01C756.384 1341.49 755.208 1327.79 755.262 1314.06C780.652 1313.91 810.632 1314.91 835.45 1313.84Z"/><path fill="#7152E0" d="M1000.02 1555.45C1004.96 1555.48 1008.25 1555.28 1013.23 1555.85C1008.85 1556.12 1004.93 1556 1000.74 1556.22C1000.75 1565.89 1001.2 1584.1 1000.13 1593.03C1000.22 1600.17 1000.42 1626.87 999.665 1635.64C999.637 1635.97 998.439 1635.96 998.029 1635.96L996.931 1635.95C992.199 1632.96 977.723 1627.68 971.583 1624.74C954.383 1616.51 934.111 1605.75 918.643 1594.58C918.523 1582.86 918.261 1567.25 918.815 1555.77C941.647 1555.31 967.65 1555.56 990.661 1555.83C994.451 1555.42 996.192 1555.41 1000.02 1555.45Z"/><path fill="#412C86" d="M1000.02 1555.45C1004.96 1555.48 1008.25 1555.28 1013.23 1555.85C1008.85 1556.12 1004.93 1556 1000.74 1556.22C1000.75 1565.89 1001.2 1584.1 1000.13 1593.03C999.757 1588.48 1000.03 1557.92 999.426 1556.7C998.331 1556.07 992.287 1555.96 990.661 1555.83C994.451 1555.42 996.192 1555.41 1000.02 1555.45Z"/><path fill="#13092F" d="M869.652 1556.85C874.805 1555.15 910.363 1556.15 918.815 1555.77C918.261 1567.25 918.523 1582.86 918.643 1594.58C908.434 1588.24 880.18 1567.88 872.488 1559.41L870.764 1557.75L869.652 1556.85Z"/><path fill="#100725" d="M870.764 1557.75C873.505 1557.28 885.174 1556.81 887.412 1557.56L887.428 1557.64C886.109 1558.41 876.077 1558.66 872.488 1559.41L870.764 1557.75Z"/><path fill="#13092F" d="M844.131 644.993C840.294 621.858 844.254 600.549 857.924 581.183C870.793 562.903 890.44 550.53 912.486 546.824C934.128 543.36 956.252 548.768 973.857 561.822C991.44 574.861 1003.02 594.437 1005.99 616.125C1009.15 638.343 1003.36 660.907 989.898 678.862C976.804 696.19 957.283 707.516 935.741 710.284C925.376 711.615 918.654 710.762 908.227 709.624C913.83 726.012 917.64 741.997 913.332 759.337C893.621 677.611 791.54 656.675 734.715 715.143C726.013 724.097 721.373 734.501 716.635 745.876C715.548 750.999 714.418 755.103 712.985 760.087C711.756 749.198 710.897 742.488 712.892 731.731C713.634 723.833 716.508 715.926 719.322 708.539C694.769 712.915 674.132 711.638 652.955 696.833C634.751 684.201 622.337 664.83 618.465 643.014C614.552 620.93 619.697 598.201 632.739 579.954C645.992 561.529 665.325 550.192 687.647 546.705C708.351 543.67 729.422 548.844 746.366 561.122C764.438 574.42 776.245 593.242 779.423 615.524C780.794 625.12 780.522 634.88 778.618 644.384C804.092 637.922 818.631 638.756 844.131 644.993Z"/><path fill="#7152E0" d="M1564.98 910.02L1646.24 909.914L1646.11 990.958L1565.02 990.994L1565 1070.95C1575.5 1071.4 1641.85 1070.06 1646.12 1071.7L1646.07 1152.74C1619.07 1152.79 1592.07 1152.7 1565.08 1152.48C1565.05 1178.77 1565.59 1207.1 1564.97 1233.2C1539.56 1233.99 1510.88 1233.18 1485.13 1233.19C1458.55 1233.57 1431.27 1232.66 1404.84 1233.26C1404.31 1206.34 1404.94 1179.21 1404.76 1152.29L1404.81 1071.85C1404.49 1044.97 1405.19 1017.7 1404.79 990.894C1422.9 991.52 1467.76 991.841 1485.08 990.747C1485.85 968.088 1485.67 932.722 1485.06 910.015C1511.05 910.095 1539.19 910.558 1564.98 910.02Z"/><path fill="#7152E0" d="M1564.98 910.02L1646.24 909.914L1646.11 990.958L1565.02 990.994L1565 1070.95L1564.41 1071.76C1539.71 1072.58 1510.67 1072.03 1485.73 1071.93C1485.56 1068.73 1485.51 1066.06 1485.15 1062.86C1484.35 1043.23 1484.51 1010.49 1485.08 990.747C1485.85 968.088 1485.67 932.722 1485.06 910.015C1511.05 910.095 1539.19 910.558 1564.98 910.02Z"/><path fill="#13092F" d="M1564.98 910.02C1564.34 936.171 1564.89 964.033 1564.76 990.378C1542.33 990.55 1506.06 989.19 1485.08 990.747C1485.85 968.088 1485.67 932.722 1485.06 910.015C1511.05 910.095 1539.19 910.558 1564.98 910.02Z"/><path fill="#13092F" d="M1485.08 990.747C1484.51 1010.49 1484.35 1043.23 1485.15 1062.86C1484.91 1065.96 1484.84 1068.77 1484.66 1071.83C1458.32 1071.85 1431.06 1071.48 1404.81 1071.85C1404.49 1044.97 1405.19 1017.7 1404.79 990.894C1422.9 991.52 1467.76 991.841 1485.08 990.747Z"/><path fill="#13092F" d="M1404.76 1152.29C1428.18 1153.49 1461.24 1152.67 1485.01 1152.56C1484.99 1178.46 1484.35 1207.54 1485.13 1233.19C1458.55 1233.57 1431.27 1232.66 1404.84 1233.26C1404.31 1206.34 1404.94 1179.21 1404.76 1152.29Z"/><path fill="#13092F" d="M1485.73 1071.93C1510.67 1072.03 1539.71 1072.58 1564.41 1071.76C1564.32 1088.89 1563.26 1130.98 1564.84 1146.37C1564.93 1150.53 1565.95 1152.23 1561.53 1152.2C1536.12 1152.06 1510.53 1152.24 1485.15 1152.19C1485.19 1137.61 1485.32 1122.58 1485.12 1108.04C1486.17 1098.58 1485.75 1081.82 1485.73 1071.93Z"/><path fill="#412C86" d="M1565 1070.95C1575.5 1071.4 1641.85 1070.06 1646.12 1071.7C1640.67 1072.47 1623.7 1072.11 1617.65 1072.09L1565.17 1072.06C1564.99 1094.13 1566.21 1125.18 1564.84 1146.37C1563.26 1130.98 1564.32 1088.89 1564.41 1071.76L1565 1070.95Z"/><path fill="#412C86" d="M1485.15 1062.86C1485.51 1066.06 1485.56 1068.73 1485.73 1071.93C1485.75 1081.82 1486.17 1098.58 1485.12 1108.04C1484.11 1096.56 1485.17 1083.57 1484.66 1071.83C1484.84 1068.77 1484.91 1065.96 1485.15 1062.86Z"/><path fill="#7152E0" d="M1404.76 744.914C1425.7 744.065 1447.27 745.257 1468.27 744.77C1473.76 744.643 1479.66 744.625 1485.11 744.939C1503.59 745.885 1546.28 745.752 1565.01 744.958C1590.44 743.998 1620.37 744.875 1646.2 744.74L1646.18 826.321C1619.35 826.298 1591.7 826.589 1564.9 826.118C1539.18 825.535 1511.1 826.063 1485.23 826.144C1459.04 826.271 1430.88 826.633 1404.77 826.167C1404.26 799.726 1404.86 771.536 1404.76 744.914Z"/><path fill="#7152E0" d="M1565.01 744.958C1590.44 743.998 1620.37 744.875 1646.2 744.74L1646.18 826.321C1619.35 826.298 1591.7 826.589 1564.9 826.118C1564.3 803.158 1564.25 767.791 1565.01 744.958Z"/><path fill="#13092F" d="M1565.01 744.958C1564.25 767.791 1564.3 803.158 1564.9 826.118C1539.18 825.535 1511.1 826.063 1485.23 826.144C1485.64 803.304 1486.01 767.578 1485.11 744.939C1503.59 745.885 1546.28 745.752 1565.01 744.958Z"/><path fill="#13092F" d="M1485.23 826.144C1511.1 826.063 1539.18 825.535 1564.9 826.118C1566 850.086 1565.28 885.337 1564.98 910.02C1539.19 910.558 1511.05 910.095 1485.06 910.015C1459.83 909.767 1429.91 909.367 1404.83 910.01C1404.03 882.481 1405.51 853.626 1404.77 826.167C1430.88 826.633 1459.04 826.271 1485.23 826.144Z"/><path fill="#7152E0" d="M1485.23 826.144C1511.1 826.063 1539.18 825.535 1564.9 826.118C1566 850.086 1565.28 885.337 1564.98 910.02C1539.19 910.558 1511.05 910.095 1485.06 910.015C1484.46 885.526 1484.45 850.447 1485.23 826.144Z"/><path fill="#13092F" d="M1083.64 990.938C1110.55 990.679 1137.86 991.493 1164.74 990.753C1164.46 1017.76 1164.32 1044.76 1164.32 1071.76L1083.56 1071.78C1083.72 1098.64 1083.67 1125.5 1083.42 1152.37L1000.2 1152.4C1000.19 1127.3 1001.05 1096.38 1000.06 1071.79C1027.04 1072.48 1056.36 1071.91 1083.52 1071.89L1083.64 990.938Z"/><path fill="#13092F" d="M1244.5 826.311L1325.52 826.185C1326.29 851.904 1325.48 883.81 1325.28 909.906L1244.66 909.997C1243.85 882.85 1244.42 853.57 1244.5 826.311Z"/><path fill="#7152E0" d="M835.887 1313.42C840.902 1314.38 855.032 1313.83 860.869 1313.91C880.011 1314.18 899.641 1313.53 918.759 1313.95C919.623 1333.18 919.719 1375.55 918.852 1394.95C906.047 1395.66 888.781 1395.07 875.58 1395.12C863.995 1395.16 847.521 1395.55 836.24 1394.93C835.668 1380.17 838.306 1324.12 835.45 1313.84L835.887 1313.42Z"/><path fill="#13092F" d="M1083.41 1233.27L1083.51 1313.92L1000.03 1314C1000.88 1288.96 1000.44 1258.73 1000.3 1233.38C1027.82 1233.11 1056 1233.84 1083.41 1233.27Z"/><path fill="#13092F" d="M1000.09 910.067C1026.28 910.885 1056.92 910.005 1083.47 910.005C1083.65 936.854 1083.65 963.705 1083.46 990.554L1000.27 990.766C1000.17 964.427 1000.77 936.235 1000.09 910.067Z"/><path fill="#EFEFEF" d="M836.165 990.821C854.534 991.27 873.47 990.597 891.873 990.842C899.672 990.947 910.885 990.298 918.311 991.364L918.77 991.709C919.504 1016.14 919.27 1047.1 918.851 1071.68C892.693 1071.95 862.397 1072.23 836.268 1071.6C835.172 1048.29 836.276 1015.03 836.165 990.821Z"/><path fill="#13092F" d="M1000.06 1394.93C1026.22 1395.72 1057.1 1395.33 1083.47 1395.14L1083.33 1475.07L1000.19 1475.08C1000.1 1448.74 1000.61 1421.13 1000.06 1394.93Z"/><path fill="#13092F" d="M836.268 1071.6C862.397 1072.23 892.693 1071.95 918.851 1071.68C918.275 1097.8 918.651 1125.87 918.676 1152.13C891.669 1152.05 863.061 1151.67 836.153 1152.13C836.459 1127.16 836.948 1096.24 836.268 1071.6Z"/><path fill="#13092F" d="M918.849 1233.16C918.288 1240.3 918.337 1248.6 918.471 1255.82C918.827 1274.97 917.841 1294.88 918.759 1313.95C899.641 1313.53 880.011 1314.18 860.869 1313.91C855.032 1313.83 840.902 1314.38 835.887 1313.42C836.437 1306.81 836.22 1299.22 836.22 1292.5C837.392 1277.08 836.714 1249.83 836.671 1233.5C863.127 1233.16 892.777 1234.29 918.849 1233.16Z"/><path fill="#13092F" d="M918.77 991.709C927.375 989.257 986.807 990.912 1000.03 990.845C999.981 1016.44 999.255 1046.51 1000.06 1071.79C976.205 1070.95 943.252 1071.45 918.851 1071.68C919.27 1047.1 919.504 1016.14 918.77 991.709Z"/><path fill="#13092F" d="M918.759 1313.95C944.856 1314.46 973.893 1314.32 1000.03 1314C999.197 1337.38 999.595 1371.09 1000.06 1394.93C977.343 1394.18 941.73 1394.26 918.852 1394.95C919.719 1375.55 919.623 1333.18 918.759 1313.95Z"/><path fill="#13092F" d="M1244.59 990.8C1267.39 991.862 1301.89 991.03 1325.28 990.779C1325.31 1016.28 1326.2 1046.67 1325.29 1071.76L1244.44 1071.77L1244.59 990.8Z"/><path fill="#7152E0" d="M1404.83 910.01C1429.91 909.367 1459.83 909.767 1485.06 910.015C1485.67 932.722 1485.85 968.088 1485.08 990.747C1467.76 991.841 1422.9 991.52 1404.79 990.894C1404.41 964.131 1405.19 936.828 1404.83 910.01Z"/><path fill="#13092F" d="M1083.62 1152.5C1110.46 1152.38 1137.45 1153.13 1164.27 1152.7L1164.18 1233.19L1083.41 1233.27C1083.25 1206.35 1083.33 1179.42 1083.62 1152.5Z"/><path fill="#13092F" d="M918.922 1152.79L999.986 1152.74L999.978 1233.17C973.172 1233.18 945.583 1232.78 918.849 1233.16C919.909 1209.47 918.999 1177.06 918.922 1152.79Z"/><path fill="#13092F" d="M918.719 1475.23C941.42 1476.57 976.893 1475.83 1000 1475.59L1000.02 1555.45C996.192 1555.41 994.451 1555.42 990.661 1555.83C967.65 1555.56 941.647 1555.31 918.815 1555.77C919.782 1536.19 918.396 1515.59 918.896 1495.91C919.063 1489.34 919.093 1481.72 918.719 1475.23Z"/><path fill="#7152E0" d="M1404.84 1233.26C1431.27 1232.66 1458.55 1233.57 1485.13 1233.19C1485.88 1258.83 1485.12 1288.06 1485.19 1313.97L1404.67 1313.96C1405.05 1287.58 1405.09 1259.66 1404.84 1233.26Z"/><path fill="#13092F" d="M1164.82 910.09L1244.66 909.997C1245.26 936.535 1244.31 964.15 1244.59 990.8C1238.1 990.097 1221.57 990.388 1214.36 990.527C1198.34 990.836 1180.52 990.057 1164.74 990.753C1165.56 965.405 1164.86 935.72 1164.82 910.09Z"/><path fill="#13092F" d="M1404.76 744.914C1404.86 771.536 1404.26 799.726 1404.77 826.167C1379.78 825.426 1350.81 825.95 1325.6 826.049L1325.61 745.052C1347.54 745.142 1383.91 746.221 1404.76 744.914Z"/><path fill="#13092F" d="M1404.8 664.768C1431.15 664.889 1458.77 665.174 1485.03 664.731C1484.93 689.276 1484.15 720.898 1485.11 744.939C1479.66 744.625 1473.76 744.643 1468.27 744.77C1447.27 745.257 1425.7 744.065 1404.76 744.914L1404.8 664.768Z"/><path fill="#13092F" d="M1404.83 910.01C1405.19 936.828 1404.41 964.131 1404.79 990.894C1383.38 989.621 1348.15 990.594 1325.58 990.54L1325.64 910.116C1350.97 910.075 1379.83 910.855 1404.83 910.01Z"/><path fill="#13092F" d="M1404.84 1233.26C1405.09 1259.66 1405.05 1287.58 1404.67 1313.96C1378.51 1313.69 1351.83 1313.99 1325.63 1313.99L1325.62 1233.26C1349.44 1233.43 1381.69 1234.45 1404.84 1233.26Z"/><path fill="#13092F" d="M1325.59 1071.88C1351.53 1071.9 1378.97 1072.43 1404.81 1071.85L1404.76 1152.29C1380.89 1151.23 1350.05 1152.21 1325.72 1152.22C1325.4 1125.65 1325.6 1098.49 1325.59 1071.88Z"/><path fill="#13092F" d="M999.048 875.139C1000.74 879.43 999.913 903.62 1000.09 910.067C980.727 909.35 959.952 910.356 940.47 909.856C933.967 909.69 924.767 910.305 918.587 909.385C918.899 904.016 918.829 898.972 918.827 893.608C927.422 892.948 933.433 892.435 942.005 891.166C961.605 888.186 980.764 882.803 999.048 875.139Z"/><path fill="#13092F" d="M1244.46 1152.57C1271.3 1152.54 1298.56 1152.74 1325.36 1152.33L1325.28 1232.99L1244.69 1233.01L1244.49 1314L1325.19 1313.99L1325.36 1394.77L1244.63 1395.04C1244.3 1368.01 1244.18 1340.97 1244.25 1313.93L1164.86 1313.97L1164.76 1233.64C1191.07 1233.59 1218.25 1233.89 1244.48 1233.41L1244.46 1152.57Z"/><path fill="#13092F" d="M1083.54 1314.01L1164.31 1314.03C1164.12 1340.84 1164.61 1368.11 1164.19 1394.82C1137.45 1394.49 1110.27 1394.82 1083.48 1394.78L1083.54 1314.01Z"/><path fill="#13092F" d="M1083.74 1475.58C1110.63 1475.76 1137.52 1475.79 1164.41 1475.65C1164.29 1502 1164.1 1529.32 1164.4 1555.65L1083.53 1555.83L1083.74 1475.58Z"/><path fill="#13092F" d="M1244.4 1475.15C1266.96 1476.52 1302.07 1475.58 1325.41 1475.5L1325.22 1555.32L1244.49 1555.31C1244.24 1529.44 1243.84 1500.91 1244.4 1475.15Z"/><path fill="#13092F" d="M1485.27 583.863C1510.96 583.223 1538.87 583.898 1564.88 583.758L1564.78 664.296L1485.18 664.462L1485.27 583.863Z"/><path fill="#13092F" d="M1164.85 1072L1244.39 1071.96C1244.63 1098.7 1244.67 1125.44 1244.5 1152.17L1164.91 1152.19L1164.85 1072Z"/><path fill="#13092F" d="M1164.74 1395.11C1191.11 1395.01 1218.4 1395.56 1244.63 1395.04C1245.19 1418.02 1245.33 1452.4 1244.4 1475.15C1220 1474.19 1189.72 1474.98 1164.88 1475.06L1164.74 1395.11Z"/><path fill="#EFEFEF" d="M675.584 1618.93L575.471 1620.68C566.472 1620.86 557.357 1621.2 548.352 1621.23C524.051 1621.27 499.86 1624.6 476.66 1615.18C452.798 1605.49 439.606 1576.76 446.637 1552.18C454.012 1526.39 478.581 1514.61 500.454 1502.78L534.381 1484.52C558.709 1524.33 599.862 1564.89 638.655 1590.45C653.367 1600.14 670.018 1608.64 685.706 1616.59C686.723 1616.95 688.161 1617.24 688.607 1618.35C687.836 1619.64 677.378 1618.99 675.584 1618.93Z"/><path fill="#E3E1ED" d="M685.706 1616.59C686.723 1616.95 688.161 1617.24 688.607 1618.35C687.836 1619.64 677.378 1618.99 675.584 1618.93C679.104 1617.89 682.786 1617.89 685.706 1616.59Z"/><path fill="#EFEFEF" d="M1052.57 403.357C1076.69 401.793 1099.02 406.657 1118.67 421.39C1138.27 436.125 1151.18 458.08 1154.53 482.378C1158.63 511.292 1149.3 535.031 1132.29 557.758C1129.11 549.921 1125.77 543.017 1122.1 535.432C1089.93 480.302 1052.79 450.862 994.871 426.026C1013.86 411.974 1028.89 406.19 1052.57 403.357Z"/><path fill="#EFEFEF" d="M573.564 403.331C603.209 401.453 622.738 408.291 648.023 423.172C599.387 442.148 561.225 473.04 529.151 513.548C520.419 525.351 513.552 537.214 506.469 549.987C498.044 537.372 492.345 525.263 490.03 510.192C486.427 485.567 492.754 460.52 507.619 440.56C524.4 418.11 546.28 407.121 573.564 403.331Z"/><path fill="#7152E0" d="M1564.84 417.637C1591.96 417.849 1619.09 417.906 1646.22 417.807L1646.25 498.016C1621.45 498.019 1589 499.009 1564.89 497.854C1564.2 472.348 1564.82 443.4 1564.84 417.637Z"/><defs><linearGradient id="gradient_0" gradientUnits="userSpaceOnUse" x1="1597.6232" y1="1269.5873" x2="1570.2086" y2="1243.0485"><stop offset="0" stop-color="#34226B"/><stop offset="1" stop-color="#573CB4"/></linearGradient></defs><path fill="url(#gradient_0)" d="M1564.97 1233.2C1567.72 1233.15 1570.17 1233.15 1572.94 1233.25C1597.42 1232.68 1622.28 1233.43 1646.9 1232.96L1646.83 1238C1646.73 1243.11 1647.82 1265.6 1646.34 1267.75C1643.76 1267.52 1645 1237.78 1645 1234.87C1642.66 1234.99 1629.01 1234.72 1628.63 1235.81C1625.03 1245.96 1614.33 1250.71 1608.51 1258.51C1603.53 1265.19 1598.46 1268.52 1592.81 1274.48C1590.3 1277.27 1587.5 1279.6 1584.79 1282.85C1580.53 1287.97 1561.66 1303.06 1566.38 1310.64C1571.38 1313.36 1583.88 1311.1 1589.52 1312.33C1591.02 1312.65 1603.18 1310.48 1602.26 1313.51C1600.43 1315.07 1569.42 1314.02 1564.67 1314C1564.61 1301.94 1565.01 1289.08 1564.7 1277.18L1564.75 1272.66C1564.81 1266.91 1564.41 1247.63 1565.35 1242.82C1564.83 1238.43 1564.81 1237.63 1564.97 1233.2Z"/><path fill="#7152E0" d="M1564.97 1233.2C1567.72 1233.15 1570.17 1233.15 1572.94 1233.25C1574.1 1236.25 1574.32 1234.38 1575.91 1235.71C1575.82 1237.93 1572.49 1245.18 1571.59 1246.88L1572.71 1246.39C1577.89 1243.74 1576.47 1248.07 1574.6 1249.57C1569.54 1253.63 1567.49 1254.31 1571.04 1247.53C1562.96 1251.03 1568.93 1248.91 1565.35 1242.82C1564.83 1238.43 1564.81 1237.63 1564.97 1233.2Z"/><path fill="#412C86" d="M1564.75 1272.66C1565.64 1272.33 1567.32 1271.54 1568.29 1271.76C1569.36 1273.17 1566.01 1276.02 1565.1 1276.82L1564.7 1277.18L1564.75 1272.66Z"/></svg>